<svg id="e18s6t2e90mb1" xmlns="http://www.w3.org/2000/svg" xmlns:xlink="http://www.w3.org/1999/xlink" viewBox="0 0 878 660" shape-rendering="geometricPrecision" text-rendering="geometricPrecision" width="878" height="660"><style><![CDATA[#e18s6t2e90mb27_tr {animation: e18s6t2e90mb27_tr__tr 3000ms linear infinite alternate-reverse backwards}@keyframes e18s6t2e90mb27_tr__tr { 0% {transform: translate(658.763794px,94.629833px) rotate(-15deg)} 50% {transform: translate(658.763794px,94.629833px) rotate(0deg)} 100% {transform: translate(658.763794px,94.629833px) rotate(15deg)} }#e18s6t2e90mb66_tr {animation: e18s6t2e90mb66_tr__tr 3000ms linear infinite alternate-reverse backwards}@keyframes e18s6t2e90mb66_tr__tr { 0% {transform: translate(314.238419px,49.561909px) rotate(-15deg)} 50% {transform: translate(314.238419px,49.561909px) rotate(0deg)} 100% {transform: translate(314.238419px,49.561909px) rotate(15deg)} }]]></style><defs><linearGradient id="e18s6t2e90mb2-fill" x1="369.500000" y1="153.500000" x2="868" y2="652" spreadMethod="pad" gradientUnits="userSpaceOnUse"><stop id="e18s6t2e90mb2-fill-0" offset="0%" stop-color="rgb(255,255,255)"/><stop id="e18s6t2e90mb2-fill-1" offset="100%" stop-color="rgba(255,255,255,0)"/></linearGradient></defs><path id="e18s6t2e90mb2" d="M868.075000,660L1.269100,660C-9.705780,512.198000,136.012000,419.063000,215.180000,368.462000C225.465000,361.889000,234.626000,356.033000,242.175000,350.869000C275.263000,328.232000,299.799000,278.801000,325.894000,226.228000C373.970000,129.372000,427.337000,21.854500,549.226000,51.590700C656.389000,77.802400,817.447000,189.332000,878,356.181000L878,633.297000C874.996000,642.129000,871.691000,651.031000,868.075000,660Z" opacity="0.5" clip-rule="evenodd" fill="url(#e18s6t2e90mb2-fill)" fill-rule="evenodd" stroke="none" stroke-width="1"/><path id="e18s6t2e90mb3" d="M477,465C351.079000,465,249,475.297000,249,488C249,500.703000,351.079000,511,477,511C602.921000,511,705,500.703000,705,488C705,475.297000,602.921000,465,477,465Z" fill="rgb(240,240,245)" stroke="none" stroke-width="1"/><path id="e18s6t2e90mb4" d="M683.380000,398.817000C683.380000,398.817000,651.032000,491.056000,647.566000,491.056000C644.100000,491.056000,574.782000,512.963000,636.013000,485.291000C636.013000,485.291000,642.945000,384.981000,653.343000,380.369000C663.740000,375.758000,683.380000,398.817000,683.380000,398.817000Z" fill="rgb(150,84,80)" stroke="none" stroke-width="1"/><path id="e18s6t2e90mb5" d="M659.119000,465.229000C669.632000,437.903000,683.381000,398.817000,683.381000,398.817000C683.381000,398.817000,663.740000,375.758000,653.343000,380.369000C646.642000,383.367000,641.328000,426.489000,638.439000,456.466000C645.371000,459.234000,652.187000,462.231000,659.119000,465.229000Z" fill="rgb(118,65,59)" stroke="none" stroke-width="1"/><path id="e18s6t2e90mb6" d="M625.962000,490.249000C625.962000,490.249000,623.305000,496.360000,648.721000,489.903000L647.566000,493.362000C647.566000,493.362000,575.938000,510.196000,625.962000,490.249000Z" fill="rgb(5,31,56)" stroke="none" stroke-width="1"/><path id="e18s6t2e90mb7" d="M663.740000,359.731000C663.740000,359.731000,713.764000,443.784000,711.569000,446.436000C709.374000,449.087000,681.647000,516.191000,699.669000,451.509000C699.669000,451.509000,627.117000,381.753000,630.236000,370.800000C633.471000,359.962000,663.740000,359.731000,663.740000,359.731000Z" fill="rgb(150,84,80)" stroke="none" stroke-width="1"/><path id="e18s6t2e90mb8" d="M697.128000,462.347000C697.128000,462.347000,700.132000,468.342000,711.454000,444.706000L713.418000,447.819000C713.302000,447.819000,680.261000,513.539000,697.128000,462.347000Z" fill="rgb(5,31,56)" stroke="none" stroke-width="1"/><path id="e18s6t2e90mb9" d="M692.854000,409.771000C679.452000,386.134000,663.740000,359.731000,663.740000,359.731000C663.740000,359.731000,633.471000,359.962000,630.236000,370.800000C628.157000,377.833000,657.964000,409.655000,679.106000,431.101000C679.221000,431.216000,687.424000,422.108000,692.854000,409.771000Z" fill="rgb(118,65,59)" stroke="none" stroke-width="1"/><path id="e18s6t2e90mb10" d="M695.510000,233.364000C695.510000,233.364000,664.894000,199.351000,646.987000,220.681000C629.080000,242.011000,601.353000,312.343000,605.396000,341.168000C607.823000,358.117000,624.112000,376.219000,637.167000,388.325000L626.192000,450.125000C626.192000,450.125000,671.248000,462.231000,668.360000,462.231000C666.627000,462.231000,712.839000,338.286000,717.460000,299.084000C722.082000,259.883000,695.510000,233.364000,695.510000,233.364000Z" fill="rgb(102,51,204)" stroke="none" stroke-width="1"/><path id="e18s6t2e90mb11" d="M672.059000,240.974000C680.608000,240.858000,689.966000,239.705000,698.168000,236.362000C696.551000,234.402000,695.511000,233.364000,695.511000,233.364000C695.511000,233.364000,664.896000,199.351000,646.989000,220.681000C644.216000,224.025000,641.212000,228.406000,638.208000,233.710000C648.260000,239.244000,660.968000,241.204000,672.059000,240.974000Z" opacity="0.2" fill="rgb(53,44,56)" stroke="none" stroke-width="1"/><path id="e18s6t2e90mb12" d="M626.193000,257.461000C613.485000,286.401000,602.741000,322.374000,605.398000,341.053000C607.708000,357.886000,623.883000,375.873000,636.937000,387.979000C641.559000,356.618000,649.992000,313.035000,655.076000,287.900000C642.483000,280.752000,632.085000,270.490000,626.193000,257.461000Z" opacity="0.2" fill="rgb(53,44,56)" stroke="none" stroke-width="1"/><path id="e18s6t2e90mb13" d="M607.131000,165.337000L588.646000,201.080000C588.646000,201.080000,556.298000,183.209000,551.676000,183.209000C547.055000,183.209000,525.105000,183.785000,535.502000,188.397000C535.502000,188.397000,530.881000,191.279000,536.080000,192.432000C536.080000,192.432000,531.459000,196.468000,537.235000,197.044000L550.521000,196.468000C550.521000,196.468000,577.093000,220.681000,590.379000,224.139000C603.665000,227.598000,625.038000,182.632000,625.038000,182.632000L607.131000,165.337000Z" fill="rgb(150,84,80)" stroke="none" stroke-width="1"/><path id="e18s6t2e90mb14" d="M610.135000,190.934000C613.023000,191.972000,616.027000,193.010000,619.031000,194.047000C622.728000,187.591000,625.038000,182.517000,625.038000,182.517000L607.131000,165.223000L596.964000,184.823000C601.008000,187.360000,605.514000,189.320000,610.135000,190.934000Z" fill="rgb(118,65,59)" stroke="none" stroke-width="1"/><path id="e18s6t2e90mb15" d="M630.236000,148.043000C630.236000,148.043000,612.907000,145.161000,606.552000,154.385000C600.198000,163.608000,597.310000,178.597000,597.310000,178.597000L622.149000,190.704000L630.236000,148.043000Z" fill="rgb(52,203,121)" stroke="none" stroke-width="1"/><path id="e18s6t2e90mb16" d="M620.648000,180.673000C614.294000,175.715000,607.015000,169.489000,602.279000,161.994000C598.813000,170.065000,597.195000,178.482000,597.195000,178.482000L622.034000,190.588000L623.536000,182.748000C622.612000,182.172000,621.572000,181.480000,620.648000,180.673000Z" opacity="0.1" fill="rgb(22,24,38)" stroke="none" stroke-width="1"/><path id="e18s6t2e90mb17" d="M508.699000,178.943000C509.392000,180.788000,508.353000,182.863000,506.504000,183.555000L492.872000,188.513000C491.023000,189.205000,488.944000,188.167000,488.250000,186.322000L482.821000,171.218000C482.127000,169.373000,483.167000,167.298000,485.016000,166.606000L498.648000,161.648000C500.497000,160.957000,502.576000,161.994000,503.269000,163.839000L508.699000,178.943000Z" fill="rgb(35,23,59)" stroke="none" stroke-width="1"/><path id="e18s6t2e90mb18" d="M519.674000,167.644000L476.928000,182.979000C469.419000,185.630000,465.607000,193.932000,468.264000,201.426000L481.434000,237.976000C484.091000,245.470000,492.409000,249.275000,499.919000,246.623000L542.665000,231.289000C550.174000,228.637000,553.987000,220.335000,551.330000,212.841000L538.159000,176.291000C535.387000,168.797000,527.184000,164.877000,519.674000,167.644000ZM547.171000,216.185000C548.210000,219.182000,546.708000,222.526000,543.705000,223.564000L525.335000,172.832000C528.339000,171.795000,531.690000,173.294000,532.729000,176.291000L547.171000,216.185000Z" fill="rgb(50,33,83)" stroke="none" stroke-width="1"/><path id="e18s6t2e90mb19" d="M505.926000,163.608000C506.504000,165.223000,505.695000,167.067000,504.078000,167.644000L484.669000,174.677000C483.051000,175.254000,481.203000,174.447000,480.625000,172.832000L479.008000,168.336000C478.430000,166.722000,479.239000,164.877000,480.856000,164.300000L500.265000,157.267000C501.883000,156.691000,503.731000,157.498000,504.309000,159.112000L505.926000,163.608000Z" fill="rgb(102,51,204)" stroke="none" stroke-width="1"/><path id="e18s6t2e90mb20" d="M533.191000,185.515000C533.191000,185.515000,540.470000,182.979000,541.741000,184.477000C542.896000,185.861000,535.618000,187.936000,535.964000,188.052000C536.195000,188.167000,543.820000,186.438000,544.513000,188.052000C545.207000,189.666000,536.426000,192.548000,536.426000,192.548000C536.426000,192.548000,544.744000,190.242000,545.322000,191.972000C545.900000,193.701000,536.657000,196.238000,536.657000,196.238000L536.195000,192.433000L535.618000,188.052000L533.191000,185.515000Z" fill="rgb(150,84,80)" stroke="none" stroke-width="1"/><path id="e18s6t2e90mb21" d="M543.474000,183.555000C543.474000,183.555000,537.813000,179.750000,537.813000,178.482000C537.697000,177.098000,552.832000,183.440000,552.832000,183.440000L543.474000,183.555000Z" fill="rgb(150,84,80)" stroke="none" stroke-width="1"/><path id="e18s6t2e90mb22" d="M655.075000,145.161000C653.920000,147.236000,659.581000,98.926100,659.581000,98.926100L633.356000,116.567000C633.356000,116.567000,635.666000,147.467000,632.778000,147.582000C631.623000,147.582000,627.117000,149.312000,622.149000,151.156000C623.305000,156.921000,625.615000,158.189000,627.579000,163.724000C642.252000,163.609000,658.195000,163.263000,667.206000,149.888000C662.007000,148.159000,656.577000,142.278000,655.075000,145.161000Z" fill="rgb(118,65,59)" stroke="none" stroke-width="1"/><path id="e18s6t2e90mb23" d="M630.236000,148.043000L629.081000,144.008000L657.964000,137.666000L659.119000,144.584000C659.119000,144.584000,693.778000,156.114000,698.399000,182.056000C703.020000,207.998000,700.710000,224.717000,695.511000,233.364000C695.511000,233.364000,655.075000,239.129000,637.746000,230.482000C620.416000,221.834000,602.509000,157.267000,611.752000,151.502000C620.994000,145.737000,630.236000,148.043000,630.236000,148.043000Z" fill="rgb(52,203,121)" stroke="none" stroke-width="1"/><path id="e18s6t2e90mb24" d="M668.015000,219.874000C654.151000,219.067000,637.168000,217.453000,625.615000,208.921000C623.420000,207.307000,621.456000,205.577000,619.608000,203.617000C624.807000,216.415000,631.276000,227.253000,637.746000,230.482000C655.076000,239.129000,695.511000,233.364000,695.511000,233.364000C697.822000,229.559000,699.555000,224.140000,700.363000,216.992000C689.966000,220.105000,679.106000,220.566000,668.015000,219.874000Z" opacity="0.1" fill="rgb(22,24,38)" stroke="none" stroke-width="1"/><path id="e18s6t2e90mb25" d="M666.628000,199.927000L696.088000,197.621000C696.088000,197.621000,688.579000,249.505000,679.914000,267.377000C671.250000,285.248000,631.392000,355.580000,646.988000,316.378000C646.988000,316.378000,626.771000,346.933000,644.100000,315.802000C644.100000,315.802000,625.038000,340.591000,641.789000,314.073000C641.789000,314.073000,622.149000,336.556000,642.945000,304.849000C642.945000,304.849000,627.348000,312.343000,644.678000,299.660000L661.430000,255.847000L666.628000,199.927000Z" fill="rgb(150,84,80)" stroke="none" stroke-width="1"/><path id="e18s6t2e90mb26" d="M695.395000,201.772000C695.858000,199.120000,696.089000,197.506000,696.089000,197.506000L666.628000,199.812000L666.397000,202.810000C675.986000,202.810000,685.691000,202.349000,695.395000,201.772000Z" fill="rgb(118,65,59)" stroke="none" stroke-width="1"/><g id="e18s6t2e90mb27_tr" transform="translate(658.763794,94.629833) rotate(15)"><g id="e18s6t2e90mb27" transform="translate(-658.763794,-94.629833)"><path id="e18s6t2e90mb28" d="M635.782000,67.910800C635.782000,67.910800,650.455000,59.378700,671.943000,73.445100C686.153000,82.784300,685.460000,112.647000,654.729000,132.247000C618.222000,155.538000,635.782000,67.910800,635.782000,67.910800Z" fill="rgb(5,31,56)" stroke="none" stroke-width="1"/><path id="e18s6t2e90mb29" d="M656.116000,83.822000C656.116000,83.822000,639.595000,71.023800,625.500000,77.250000C607.709000,85.320900,609.557000,104.114000,609.210000,120.141000C608.748000,141.471000,625.616000,145.507000,630.699000,145.737000C638.208000,146.198000,668.824000,144.354000,656.116000,83.822000Z" fill="rgb(150,84,80)" stroke="none" stroke-width="1"/><path id="e18s6t2e90mb30" d="M657.733000,103.769000C657.733000,103.769000,658.426000,100.540000,663.972000,103.077000C671.019000,106.420000,667.207000,123.254000,659.350000,122.793000C651.379000,122.447000,657.733000,103.769000,657.733000,103.769000Z" fill="rgb(150,84,80)" stroke="none" stroke-width="1"/><path id="e18s6t2e90mb31" d="M657.732000,103.769000C657.732000,103.769000,658.657000,115.298000,655.999000,115.414000C653.227000,115.529000,650.338000,94.544700,657.963000,94.544700C665.588000,94.775300,657.732000,103.769000,657.732000,103.769000Z" fill="rgb(5,31,56)" stroke="none" stroke-width="1"/><path id="e18s6t2e90mb32" d="M657.733000,103.769000C657.733000,103.769000,652.072000,78.172400,618.453000,82.438400C618.453000,82.438400,623.305000,72.868600,633.934000,68.372000C648.375000,62.261200,669.979000,86.819800,663.971000,103.077000C663.971000,103.077000,661.199000,103.423000,657.733000,103.769000Z" fill="rgb(52,203,121)" stroke="none" stroke-width="1"/><path id="e18s6t2e90mb33" d="M671.943000,80.132400C671.943000,80.132400,670.094000,49.578300,677.488000,49.578300C684.882000,49.578300,676.910000,75.289900,676.910000,75.289900C676.910000,75.289900,683.034000,38.509700,700.825000,44.044000C718.617000,49.578300,687.886000,75.289900,687.886000,75.289900C687.886000,75.289900,701.980000,62.376500,706.948000,66.757800C711.800000,71.023800,686.730000,79.671200,686.730000,79.671200C686.730000,79.671200,705.793000,74.136900,708.219000,83.360800C710.645000,92.469300,671.365000,91.201100,671.943000,80.132400Z" fill="rgb(5,31,56)" stroke="none" stroke-width="1"/><path id="e18s6t2e90mb34" d="M610.134000,97.888900C610.134000,97.888900,610.134000,97.658300,610.365000,97.197100C610.596000,96.735900,610.827000,96.159400,611.405000,95.582900C611.983000,95.006400,612.676000,94.314600,613.600000,93.853400C613.831000,93.738100,614.062000,93.622800,614.409000,93.507500C614.640000,93.392200,614.987000,93.276900,615.218000,93.276900C615.564000,93.276900,615.795000,93.161600,616.142000,93.161600L617.066000,93.161600C617.644000,93.161600,618.221000,93.392200,618.799000,93.622800C619.377000,93.853400,619.839000,94.084000,620.301000,94.429900C620.763000,94.775800,621.110000,95.121700,621.456000,95.467600C621.803000,95.813500,622.034000,96.159400,622.149000,96.505300C622.265000,96.620600,622.380000,96.851200,622.380000,96.966500C622.496000,97.081800,622.496000,97.312400,622.611000,97.427700C622.727000,97.773600,622.843000,98.004200,622.843000,98.234800C622.958000,98.695900,622.958000,98.926500,622.958000,98.926500C622.958000,98.926500,622.727000,98.811200,622.265000,98.696000C622.034000,98.580700,621.803000,98.465300,621.572000,98.350100C621.341000,98.234800,620.994000,98.119500,620.647000,97.888900C620.301000,97.773600,620.070000,97.543000,619.723000,97.427700C619.377000,97.312400,619.030000,97.197100,618.683000,97.081800C618.337000,96.966500,617.990000,96.851200,617.644000,96.735900C617.297000,96.735900,616.951000,96.620600,616.604000,96.620600L616.142000,96.620600C616.026000,96.620600,615.795000,96.620600,615.564000,96.620600C615.218000,96.620600,614.871000,96.735900,614.524000,96.735900C614.178000,96.851200,613.831000,96.851200,613.485000,96.966500C613.138000,97.081800,612.791000,97.081800,612.445000,97.197100C611.752000,97.427700,611.174000,97.543000,610.827000,97.658300C610.481000,97.888900,610.134000,97.888900,610.134000,97.888900Z" fill="rgb(5,31,56)" stroke="none" stroke-width="1"/><path id="e18s6t2e90mb35" d="M619.030000,129.595000C619.030000,129.595000,637.977000,130.172000,639.247000,129.941000C640.403000,129.711000,628.619000,138.935000,619.030000,129.595000Z" fill="rgb(255,255,255)" stroke="none" stroke-width="1"/><path id="e18s6t2e90mb36" d="M620.301000,108.496000C620.301000,108.496000,620.301000,108.726000,620.185000,109.188000C620.070000,109.649000,619.954000,110.225000,619.723000,111.032000C619.608000,111.378000,619.492000,111.839000,619.261000,112.185000C619.145000,112.416000,619.030000,112.647000,618.914000,112.762000C618.799000,112.992000,618.568000,113.223000,618.452000,113.338000C618.106000,113.684000,617.759000,114.145000,617.181000,114.376000C617.066000,114.491000,616.950000,114.491000,616.719000,114.607000L616.373000,114.722000C616.142000,114.837000,615.795000,114.837000,615.449000,114.837000C614.871000,114.837000,614.178000,114.722000,613.716000,114.261000C613.253000,113.915000,612.907000,113.454000,612.676000,112.877000C612.445000,112.416000,612.329000,111.955000,612.214000,111.494000C612.098000,111.032000,612.098000,110.571000,612.098000,110.225000C612.098000,109.418000,612.098000,108.842000,612.214000,108.381000C612.329000,107.919000,612.445000,107.689000,612.445000,107.689000C612.445000,107.689000,612.445000,108.726000,612.791000,110.225000C612.907000,110.917000,613.138000,111.839000,613.600000,112.531000C613.831000,112.877000,614.062000,113.223000,614.409000,113.454000C614.755000,113.684000,615.102000,113.800000,615.449000,113.800000C615.680000,113.800000,615.795000,113.800000,616.026000,113.684000L616.373000,113.569000C616.373000,113.569000,616.488000,113.454000,616.604000,113.454000C616.950000,113.338000,617.297000,112.992000,617.644000,112.762000C617.990000,112.416000,618.221000,112.070000,618.452000,111.724000C618.683000,111.378000,618.914000,111.032000,619.030000,110.686000C619.377000,109.995000,619.608000,109.418000,619.839000,109.072000C620.185000,108.726000,620.301000,108.496000,620.301000,108.496000Z" fill="rgb(31,39,51)" stroke="none" stroke-width="1"/><path id="e18s6t2e90mb37" d="M639.363000,109.995000C639.363000,109.995000,639.363000,110.225000,639.248000,110.686000C639.132000,111.148000,639.017000,111.724000,638.786000,112.531000C638.670000,112.877000,638.555000,113.338000,638.323000,113.684000C638.208000,113.915000,638.092000,114.145000,637.977000,114.261000C637.861000,114.491000,637.630000,114.722000,637.515000,114.837000C637.168000,115.183000,636.822000,115.644000,636.244000,115.875000C636.128000,115.990000,636.013000,115.990000,635.782000,116.106000L635.435000,116.221000C635.204000,116.336000,634.858000,116.336000,634.511000,116.336000C633.933000,116.336000,633.240000,116.221000,632.778000,115.760000C632.316000,115.414000,631.969000,114.953000,631.738000,114.376000C631.507000,113.915000,631.392000,113.454000,631.276000,112.992000C631.161000,112.531000,631.161000,112.070000,631.161000,111.724000C631.161000,110.917000,631.161000,110.341000,631.276000,109.879000C631.392000,109.418000,631.507000,109.188000,631.507000,109.188000C631.507000,109.188000,631.507000,110.225000,631.854000,111.724000C631.969000,112.416000,632.200000,113.338000,632.663000,114.030000C632.894000,114.376000,633.125000,114.722000,633.471000,114.953000C633.818000,115.183000,634.164000,115.298000,634.511000,115.298000C634.742000,115.298000,634.858000,115.298000,635.089000,115.183000L635.435000,115.068000C635.435000,115.068000,635.551000,114.953000,635.666000,114.953000C636.013000,114.837000,636.359000,114.491000,636.706000,114.261000C637.053000,113.915000,637.284000,113.569000,637.515000,113.223000C637.746000,112.877000,637.977000,112.531000,638.092000,112.185000C638.439000,111.494000,638.670000,110.917000,638.901000,110.571000C639.248000,110.225000,639.363000,109.995000,639.363000,109.995000Z" fill="rgb(31,39,51)" stroke="none" stroke-width="1"/><path id="e18s6t2e90mb38" d="M660.390000,119.565000C660.736000,119.103000,660.967000,118.757000,661.198000,118.296000C661.429000,117.835000,661.545000,117.374000,661.660000,116.913000C661.660000,116.682000,661.660000,116.451000,661.660000,116.221000C661.660000,116.106000,661.545000,115.990000,661.545000,115.990000C661.545000,115.875000,661.429000,115.760000,661.314000,115.760000C661.198000,115.644000,661.198000,115.644000,661.083000,115.529000L660.852000,115.298000C660.736000,115.183000,660.621000,115.183000,660.505000,115.183000L660.159000,115.068000L659.927000,114.953000L659.927000,114.722000C659.581000,113.454000,659.465000,112.301000,659.350000,111.032000C659.234000,110.456000,659.234000,109.764000,659.350000,109.188000C659.350000,108.496000,659.465000,107.919000,659.696000,107.228000C659.812000,106.882000,660.043000,106.536000,660.390000,106.305000C660.736000,106.075000,661.198000,105.844000,661.545000,105.959000C662.007000,105.959000,662.238000,106.075000,662.585000,106.190000C662.931000,106.305000,663.278000,106.421000,663.509000,106.651000C663.740000,106.882000,664.087000,107.112000,664.202000,107.343000C664.433000,107.574000,664.549000,107.919000,664.664000,108.150000C664.895000,108.726000,665.011000,109.418000,664.895000,109.995000C664.780000,109.418000,664.664000,108.842000,664.318000,108.265000C664.202000,108.035000,663.971000,107.804000,663.740000,107.573000C663.509000,107.343000,663.278000,107.228000,663.047000,107.112000C662.816000,106.997000,662.585000,106.882000,662.238000,106.882000C662.007000,106.882000,661.660000,106.766000,661.429000,106.766000C660.967000,106.766000,660.736000,107.112000,660.621000,107.573000C660.274000,108.611000,660.390000,109.764000,660.390000,110.917000C660.505000,112.070000,660.621000,113.338000,660.852000,114.491000L660.621000,114.146000L660.967000,114.376000C661.083000,114.491000,661.198000,114.491000,661.314000,114.607000L661.660000,114.837000C661.776000,114.953000,661.891000,115.068000,662.007000,115.183000C662.123000,115.299000,662.238000,115.414000,662.238000,115.644000C662.354000,115.760000,662.354000,115.990000,662.354000,116.106000C662.469000,116.451000,662.354000,116.682000,662.354000,117.028000C662.238000,117.604000,661.891000,118.066000,661.545000,118.527000C661.198000,118.873000,660.736000,119.334000,660.390000,119.565000Z" fill="rgb(118,65,59)" stroke="none" stroke-width="1"/><path id="e18s6t2e90mb39" d="M622.034000,124.407000C621.456000,124.522000,620.994000,124.522000,620.532000,124.522000C620.070000,124.522000,619.608000,124.407000,619.261000,124.292000C618.799000,124.176000,618.452000,123.946000,618.106000,123.831000C617.875000,123.715000,617.759000,123.600000,617.528000,123.485000C617.297000,123.369000,617.182000,123.254000,616.951000,123.139000L616.257000,122.562000L616.373000,122.101000C617.528000,118.757000,618.683000,115.529000,619.839000,112.301000C620.994000,109.072000,622.265000,105.729000,623.536000,102.500000C622.727000,105.844000,621.803000,109.303000,620.994000,112.647000C620.070000,115.990000,619.146000,119.334000,618.221000,122.678000L617.759000,121.640000C617.990000,121.640000,618.221000,121.755000,618.452000,121.755000C618.683000,121.755000,618.915000,121.870000,619.030000,121.986000C619.377000,122.101000,619.839000,122.332000,620.185000,122.562000C620.532000,122.793000,620.879000,123.139000,621.225000,123.485000C621.456000,123.600000,621.803000,123.946000,622.034000,124.407000Z" fill="rgb(118,65,59)" stroke="none" stroke-width="1"/><path id="e18s6t2e90mb40" d="M628.850000,96.504800C628.850000,96.504800,628.966000,96.158900,629.312000,95.813000C629.543000,95.582400,629.659000,95.351800,630.005000,95.005900C630.352000,94.775300,630.583000,94.429400,631.045000,94.198800C631.392000,93.968200,631.854000,93.622300,632.431000,93.391700C632.894000,93.161100,633.471000,92.930500,634.049000,92.699900C634.627000,92.584600,635.320000,92.354000,636.013000,92.354000C636.360000,92.354000,636.706000,92.354000,637.053000,92.354000L638.092000,92.469300C638.786000,92.469300,639.479000,92.815200,640.056000,92.930500C640.634000,93.161100,641.212000,93.507000,641.789000,93.737600C642.367000,94.083500,642.829000,94.429400,643.176000,94.775300C643.638000,95.121200,643.984000,95.582400,644.216000,95.928300C644.562000,96.274200,644.793000,96.620100,645.024000,96.966000C645.255000,97.311900,645.371000,97.657800,645.486000,97.888400C645.717000,98.349600,645.833000,98.695500,645.833000,98.695500C645.833000,98.695500,645.486000,98.580200,645.024000,98.349600C644.793000,98.234300,644.447000,98.119000,644.100000,97.888400C643.753000,97.657800,643.407000,97.542500,642.945000,97.427200C642.598000,97.311900,642.136000,97.081300,641.674000,96.850700C641.212000,96.735400,640.750000,96.504800,640.288000,96.389500C639.825000,96.274200,639.363000,96.158900,638.901000,96.043600C638.439000,96.043600,637.977000,95.813000,637.399000,95.813000L636.706000,95.697700L636.013000,95.697700C635.551000,95.697700,634.973000,95.697700,634.511000,95.697700C634.049000,95.697700,633.587000,95.697700,633.125000,95.813000C632.663000,95.813000,632.200000,95.928300,631.738000,95.928300C630.930000,96.043600,630.121000,96.158900,629.659000,96.274200C629.197000,96.504800,628.850000,96.504800,628.850000,96.504800Z" fill="rgb(5,31,56)" stroke="none" stroke-width="1"/></g></g><path id="e18s6t2e90mb41" d="M612.907000,490.825000C612.907000,494.976000,609.557000,498.435000,605.398000,498.550000C601.239000,498.550000,597.773000,495.207000,597.657000,491.056000L597.311000,466.613000C597.311000,462.462000,600.661000,459.003000,604.820000,458.888000C608.979000,458.888000,612.445000,462.231000,612.560000,466.382000L612.907000,490.825000Z" fill="rgb(9,30,29)" stroke="none" stroke-width="1"/><path id="e18s6t2e90mb42" d="M506.504000,492.095000C506.504000,496.245000,503.154000,499.704000,498.995000,499.820000C494.836000,499.820000,491.370000,496.476000,491.254000,492.325000L490.908000,467.882000C490.908000,463.731000,494.258000,460.272000,498.417000,460.157000C502.576000,460.157000,506.042000,463.501000,506.158000,467.651000L506.504000,492.095000Z" fill="rgb(9,30,29)" stroke="none" stroke-width="1"/><path id="e18s6t2e90mb43" d="M604.358000,473.415000C604.473000,482.870000,596.848000,490.595000,587.375000,490.710000L516.209000,491.517000C506.735000,491.633000,498.995000,484.023000,498.879000,474.568000L491.254000,312.920000C491.139000,303.466000,498.764000,295.741000,508.237000,295.625000L590.841000,294.588000C600.314000,294.472000,608.055000,302.082000,608.170000,311.536000L604.358000,473.415000Z" fill="rgb(52,203,121)" stroke="none" stroke-width="1"/><path id="e18s6t2e90mb44" d="M607.708000,327.793000L608.055000,311.767000C607.939000,302.313000,600.199000,294.703000,590.725000,294.818000L508.121000,295.856000C498.648000,295.971000,491.023000,303.696000,491.139000,313.151000L491.947000,329.177000L607.708000,327.793000Z" opacity="0.1" fill="rgb(22,24,38)" stroke="none" stroke-width="1"/><path id="e18s6t2e90mb45" d="M621.803000,307.732000C621.803000,310.383000,619.723000,312.459000,617.066000,312.574000L482.127000,314.188000C479.470000,314.188000,477.391000,312.113000,477.275000,309.461000L477.044000,292.397000C477.044000,289.745000,479.123000,287.670000,481.781000,287.554000L616.719000,285.940000C619.377000,285.940000,621.456000,288.016000,621.572000,290.667000L621.803000,307.732000Z" fill="rgb(52,203,121)" stroke="none" stroke-width="1"/><path id="e18s6t2e90mb46" d="M550.174000,355.119000L565.886000,345.665000L562.074000,355.465000L550.174000,355.119000Z" fill="rgb(255,255,255)" stroke="none" stroke-width="1"/><path id="e18s6t2e90mb47" d="M544.283000,340.246000C544.283000,340.246000,545.554000,340.246000,547.518000,343.243000C549.482000,346.241000,553.872000,354.312000,553.872000,354.312000L561.843000,350.738000L563.692000,347.625000C563.692000,347.625000,560.226000,340.707000,557.453000,340.246000L544.283000,340.246000Z" fill="rgb(255,255,255)" stroke="none" stroke-width="1"/><path id="e18s6t2e90mb48" d="M539.892000,342.321000C539.892000,342.321000,542.318000,339.669000,544.282000,341.053000C546.246000,342.437000,549.712000,348.202000,549.712000,348.202000L544.051000,358.117000L533.885000,352.468000L539.892000,342.321000Z" fill="rgb(255,255,255)" stroke="none" stroke-width="1"/><path id="e18s6t2e90mb49" d="M557.338000,367.456000L558.146000,385.673000L551.330000,377.718000L557.338000,367.456000Z" fill="rgb(255,255,255)" stroke="none" stroke-width="1"/><path id="e18s6t2e90mb50" d="M573.281000,369.301000C573.281000,369.301000,572.703000,370.454000,569.121000,370.800000C565.540000,371.146000,556.298000,371.146000,556.298000,371.146000L555.604000,379.908000L557.453000,383.021000C557.453000,383.021000,565.193000,383.367000,566.926000,381.061000L573.281000,369.301000Z" fill="rgb(255,255,255)" stroke="none" stroke-width="1"/><path id="e18s6t2e90mb51" d="M573.396000,364.458000C573.396000,364.458000,574.667000,367.802000,572.472000,368.955000C570.392000,369.993000,563.576000,370.223000,563.576000,370.223000L557.453000,360.538000L567.273000,354.197000L573.396000,364.458000Z" fill="rgb(255,255,255)" stroke="none" stroke-width="1"/><path id="e18s6t2e90mb52" d="M543.472000,367.226000L527.298000,358.693000L537.696000,356.849000L543.472000,367.226000Z" fill="rgb(255,255,255)" stroke="none" stroke-width="1"/><path id="e18s6t2e90mb53" d="M533.885000,380.024000C533.885000,380.024000,533.192000,378.986000,534.694000,375.758000C536.195000,372.529000,540.817000,364.574000,540.817000,364.574000L533.654000,359.616000L530.072000,359.731000C530.072000,359.731000,525.913000,366.303000,526.953000,368.840000L533.885000,380.024000Z" fill="rgb(255,255,255)" stroke="none" stroke-width="1"/><path id="e18s6t2e90mb54" d="M537.928000,382.560000C537.928000,382.560000,534.347000,381.868000,534.578000,379.562000C534.694000,377.141000,537.928000,371.261000,537.928000,371.261000L549.366000,370.915000L549.828000,382.560000L537.928000,382.560000Z" fill="rgb(255,255,255)" stroke="none" stroke-width="1"/><path id="e18s6t2e90mb55" d="M302.247000,445.167000C302.247000,445.167000,299.706000,485.868000,297.511000,486.675000C289.077000,489.557000,225.420000,505.699000,285.611000,478.604000L283.994000,448.972000L302.247000,445.167000Z" fill="rgb(5,31,56)" stroke="none" stroke-width="1"/><path id="e18s6t2e90mb56" d="M299.590000,476.759000C301.092000,464.422000,302.247000,445.167000,302.247000,445.167000L283.994000,448.972000L285.496000,475.376000C290.001000,476.644000,295.200000,476.759000,299.590000,476.759000Z" fill="rgb(4,21,35)" stroke="none" stroke-width="1"/><path id="e18s6t2e90mb57" d="M260.079000,492.786000C258.231000,497.282000,291.503000,488.750000,297.511000,486.675000C297.626000,486.560000,297.857000,486.329000,298.088000,485.752000C290.579000,487.828000,267.820000,493.016000,260.079000,492.786000Z" fill="rgb(255,255,255)" stroke="none" stroke-width="1"/><path id="e18s6t2e90mb58" d="M341.181000,442.977000C341.181000,442.977000,344.532000,483.677000,346.842000,484.369000C355.391000,487.136000,419.279000,502.010000,358.511000,476.067000L359.550000,446.436000L341.181000,442.977000Z" fill="rgb(5,31,56)" stroke="none" stroke-width="1"/><path id="e18s6t2e90mb59" d="M344.532000,474.453000C342.799000,462.232000,341.181000,442.977000,341.181000,442.977000L359.550000,446.436000L358.626000,472.839000C354.120000,474.223000,348.922000,474.338000,344.532000,474.453000Z" fill="rgb(4,21,35)" stroke="none" stroke-width="1"/><path id="e18s6t2e90mb60" d="M384.389000,489.788000C386.353000,494.284000,352.850000,486.329000,346.842000,484.369000C346.611000,484.369000,346.496000,484.023000,346.265000,483.446000C353.774000,485.522000,376.649000,490.249000,384.389000,489.788000Z" fill="rgb(255,255,255)" stroke="none" stroke-width="1"/><path id="e18s6t2e90mb61" d="M352.387000,223.218000C352.387000,223.218000,369.023000,357.310000,365.673000,465.806000C365.673000,465.806000,345.802000,471.340000,340.603000,467.305000C336.097000,441.593000,336.675000,391.554000,329.974000,354.427000C323.620000,319.377000,321.079000,290.667000,321.079000,290.667000L318.999000,288.361000C318.999000,288.361000,305.366000,457.850000,302.363000,470.764000C285.149000,474.799000,279.719000,470.072000,279.719000,470.072000C279.719000,470.072000,271.863000,258.038000,276.715000,223.794000C282.954000,179.059000,352.387000,223.218000,352.387000,223.218000Z" fill="rgb(52,203,121)" stroke="none" stroke-width="1"/><path id="e18s6t2e90mb62" d="M355.390000,251.004000C353.657000,233.709000,352.270000,223.333000,352.270000,223.333000C352.270000,223.333000,282.953000,179.173000,276.598000,223.909000C276.021000,228.060000,275.674000,234.862000,275.328000,243.510000C280.526000,246.392000,345.454000,255.616000,355.390000,251.004000Z" opacity="0.1" fill="rgb(22,24,38)" stroke="none" stroke-width="1"/><path id="e18s6t2e90mb63" d="M319.808000,286.978000C320.616000,296.086000,324.775000,325.488000,329.974000,354.427000C336.675000,391.669000,336.097000,441.593000,340.603000,467.305000C345.802000,471.340000,365.673000,465.806000,365.673000,465.806000C367.637000,399.048000,362.207000,322.605000,357.586000,273.719000C346.611000,280.636000,332.631000,283.980000,319.808000,286.978000Z" opacity="0.1" fill="rgb(22,24,38)" stroke="none" stroke-width="1"/><path id="e18s6t2e90mb64" d="M325.700000,105.959000C325.815000,91.892900,326.855000,73.329800,326.855000,73.329800L299.128000,65.720100C299.128000,65.720100,300.052000,90.855200,300.861000,106.190000C288.268000,110.456000,273.942000,118.527000,273.942000,118.527000L326.277000,131.786000L344.878000,113.800000C344.878000,113.800000,335.520000,109.072000,325.700000,105.959000Z" fill="rgb(255,179,159)" stroke="none" stroke-width="1"/><path id="e18s6t2e90mb65" d="M325.700000,105.959000C325.815000,91.892900,326.855000,73.329800,326.855000,73.329800L299.128000,65.720100C299.128000,65.720100,300.052000,90.855200,300.861000,106.190000C288.268000,110.456000,273.942000,118.527000,273.942000,118.527000L326.277000,131.786000L351.001000,110.571000C351.001000,110.571000,335.635000,104.806000,325.700000,105.959000Z" fill="rgb(224,155,141)" stroke="none" stroke-width="1"/><g id="e18s6t2e90mb66_tr" transform="translate(314.238419,49.561909) rotate(15)"><g id="e18s6t2e90mb66" transform="translate(-314.238419,-49.561909)"><path id="e18s6t2e90mb67" d="M296.702000,39.086200C296.702000,39.086200,303.980000,15.565300,323.158000,19.254900C342.336000,22.944400,345.109000,47.964200,347.535000,64.797800C349.961000,81.746600,344.531000,96.966000,329.512000,98.810800C316.457000,100.425000,293.698000,97.888400,296.702000,39.086200Z" fill="rgb(255,179,159)" stroke="none" stroke-width="1"/><path id="e18s6t2e90mb68" d="M297.626000,58.802200C297.626000,58.802200,296.471000,55.689200,291.734000,59.148100C285.726000,63.529500,291.849000,79.671200,299.128000,77.941800C306.406000,76.212300,297.626000,58.802200,297.626000,58.802200Z" fill="rgb(255,179,159)" stroke="none" stroke-width="1"/><path id="e18s6t2e90mb69" d="M290.925000,25.596300C291.387000,25.481000,300.399000,24.789200,294.391000,25.365700C299.936000,31.361200,299.359000,32.860100,306.984000,34.243600C311.027000,46.695900,303.056000,54.190300,303.056000,54.190300L305.251000,69.179100L299.474000,69.755600C299.474000,69.755600,299.590000,59.378700,295.200000,58.456300C290.810000,57.533900,289.539000,62.837700,289.539000,62.837700C280.412000,51.307800,271.169000,28.709300,290.925000,25.596300Z" fill="rgb(5,31,56)" stroke="none" stroke-width="1"/><path id="e18s6t2e90mb70" d="M343.260000,17.179500C346.957000,8.070890,340.719000,0,340.719000,0C341.758000,3.343660,341.296000,6.456710,340.256000,8.993280C339.563000,6.456710,338.292000,3.689550,335.982000,0.922387C335.982000,0.922387,336.675000,10.146300,324.082000,8.993280C311.489000,7.840290,289.423000,9.569770,288.499000,29.055200C287.459000,48.540700,306.291000,34.358900,306.291000,34.358900C306.291000,34.358900,343.838000,44.851100,349.268000,14.642900L343.260000,17.179500Z" fill="rgb(5,31,56)" stroke="none" stroke-width="1"/><path id="e18s6t2e90mb71" d="M325.469000,50.847600C325.469000,50.847600,325.122000,50.847600,324.660000,50.732300C324.082000,50.617000,323.389000,50.501700,322.581000,50.386400C322.118000,50.271100,321.772000,50.271100,321.310000,50.271100C320.848000,50.155800,320.386000,50.155800,319.923000,50.155800C319.461000,50.155800,318.999000,50.155800,318.421000,50.155800C318.190000,50.155800,317.959000,50.155800,317.728000,50.155800L317.035000,50.271100C316.573000,50.271100,316.111000,50.386400,315.533000,50.501700C315.071000,50.617000,314.609000,50.732300,314.147000,50.847600C313.685000,50.962900,313.223000,51.193500,312.761000,51.308800C312.298000,51.424100,311.952000,51.654700,311.490000,51.770000C311.143000,51.885300,310.681000,52.000600,310.450000,52.231200C310.103000,52.346500,309.872000,52.461800,309.641000,52.577100C309.179000,52.807700,308.833000,52.923000,308.833000,52.923000C308.833000,52.923000,308.948000,52.577100,309.179000,52.115900C309.295000,51.885300,309.410000,51.539400,309.641000,51.193500C309.872000,50.847600,310.103000,50.501700,310.450000,50.155800C310.797000,49.809900,311.028000,49.348700,311.490000,49.002800C311.952000,48.656900,312.414000,48.311000,312.992000,47.965100C313.569000,47.734500,314.147000,47.388600,314.725000,47.158000C315.418000,46.927400,315.995000,46.812100,316.689000,46.696800L317.728000,46.581500C318.075000,46.581500,318.422000,46.581500,318.768000,46.696800C319.115000,46.696800,319.461000,46.812100,319.692000,46.812100C320.039000,46.927400,320.270000,46.927400,320.617000,47.042700C321.194000,47.273300,321.772000,47.388600,322.234000,47.734500C322.696000,47.965100,323.158000,48.311000,323.620000,48.541600C323.967000,48.772200,324.314000,49.118100,324.660000,49.348700C324.891000,49.579300,325.122000,49.925200,325.353000,50.040500C325.238000,50.501700,325.469000,50.847600,325.469000,50.847600Z" fill="rgb(5,31,56)" stroke="none" stroke-width="1"/><path id="e18s6t2e90mb72" d="M344.993000,50.270100C344.993000,50.270100,344.762000,50.154800,344.300000,50.039500C343.838000,49.924200,343.260000,49.693600,342.682000,49.463000C342.336000,49.347700,341.989000,49.232500,341.643000,49.117200C341.296000,49.001900,340.949000,48.886500,340.603000,48.886500C340.256000,48.886500,339.910000,48.771300,339.563000,48.656000C339.448000,48.656000,339.216000,48.656000,339.101000,48.540700L338.639000,48.540700C338.292000,48.425400,337.946000,48.656000,337.599000,48.540700C337.252000,48.656000,336.906000,48.656000,336.559000,48.771300C336.213000,48.886600,335.866000,49.001900,335.520000,49.117200C335.173000,49.232500,334.826000,49.347700,334.595000,49.463000C334.249000,49.578300,333.902000,49.693600,333.671000,49.808900C333.440000,49.924200,333.209000,50.039500,332.978000,50.039500C332.516000,50.154800,332.285000,50.270100,332.285000,50.270100C332.285000,50.270100,332.285000,50.039500,332.516000,49.578300C332.631000,49.347700,332.631000,49.117100,332.862000,48.771300C332.978000,48.425400,333.209000,48.194800,333.440000,47.848900C333.671000,47.503000,333.902000,47.157100,334.249000,46.811200C334.595000,46.465300,335.057000,46.234700,335.404000,45.888800C335.866000,45.658200,336.444000,45.427600,336.906000,45.197000C337.484000,45.081700,338.061000,44.966400,338.639000,44.966400C338.985000,44.966400,339.216000,44.966400,339.563000,44.966400C339.910000,44.966400,340.141000,45.081700,340.372000,45.197000C340.603000,45.197000,340.949000,45.312300,341.180000,45.427600C341.412000,45.542900,341.643000,45.658200,341.874000,45.773500C342.798000,46.350000,343.491000,46.926500,343.953000,47.618300C344.415000,48.310100,344.646000,48.886600,344.877000,49.347700C344.993000,50.039500,344.993000,50.270100,344.993000,50.270100Z" fill="rgb(5,31,56)" stroke="none" stroke-width="1"/><path id="e18s6t2e90mb73" d="M330.783000,51.538400C331.476000,53.037300,332.170000,54.651500,332.863000,56.150400C333.209000,56.957400,333.440000,57.649200,333.787000,58.456300L334.711000,60.762300L335.635000,63.068300C335.982000,63.875400,336.213000,64.567100,336.560000,65.374200L337.022000,66.527200C337.137000,66.873100,337.368000,67.334300,337.484000,67.680200C337.831000,68.372000,338.177000,69.063800,338.524000,69.870900L338.870000,70.793300L338.177000,71.139200C337.137000,71.600400,336.098000,72.176800,334.942000,72.638000C333.903000,73.099200,332.747000,73.560400,331.592000,73.906300C332.516000,73.099200,333.440000,72.407400,334.365000,71.715700C335.289000,71.023900,336.329000,70.332100,337.253000,69.640300L336.906000,70.908600C336.444000,70.216800,335.982000,69.409700,335.520000,68.717900C335.058000,68.026100,334.711000,67.219000,334.365000,66.411900L333.787000,65.258900L333.325000,64.106000C333.094000,63.298900,332.747000,62.491800,332.516000,61.684700L331.823000,59.263400C331.592000,58.456300,331.476000,57.649200,331.245000,56.842100C331.130000,54.997400,330.899000,53.267900,330.783000,51.538400Z" fill="rgb(221,144,120)" stroke="none" stroke-width="1"/><path id="e18s6t2e90mb74" d="M297.279000,74.598100C296.817000,74.367500,296.355000,74.021600,296.009000,73.560400C295.662000,73.214500,295.200000,72.753300,294.969000,72.176900C294.853000,71.946300,294.738000,71.600400,294.738000,71.254500C294.738000,71.139200,294.738000,70.908600,294.738000,70.793300C294.738000,70.678000,294.853000,70.447400,294.853000,70.332100C294.969000,69.986200,295.200000,69.755600,295.431000,69.525000C295.546000,69.409700,295.662000,69.294400,295.777000,69.179100L296.124000,68.948500L295.893000,69.294400C295.893000,68.026100,295.893000,66.757800,295.777000,65.604800C295.662000,64.336600,295.546000,63.068300,295.084000,62.030600C294.969000,61.800000,294.853000,61.569400,294.622000,61.454100C294.507000,61.338800,294.276000,61.223500,294.045000,61.223500C293.929000,61.223500,293.813000,61.223500,293.698000,61.338800C293.582000,61.338800,293.351000,61.454100,293.236000,61.454100C293.005000,61.569400,292.774000,61.684700,292.543000,61.915300C292.312000,62.145900,292.080000,62.261200,291.965000,62.491800C291.849000,62.722400,291.618000,62.953000,291.503000,63.298900C291.272000,63.875400,291.156000,64.451900,291.156000,65.143600C290.925000,64.567100,290.925000,63.875400,291.041000,63.183600C291.041000,62.837700,291.156000,62.491800,291.387000,62.261200C291.503000,61.915300,291.734000,61.684700,291.965000,61.454100L292.312000,61.108200L292.774000,60.762300C292.889000,60.647000,293.120000,60.647000,293.236000,60.531700C293.351000,60.416400,293.582000,60.416400,293.813000,60.301100C294.276000,60.185800,294.738000,60.301100,295.084000,60.647000C295.431000,60.877600,295.662000,61.223500,295.777000,61.569400C296.124000,62.261200,296.240000,62.837700,296.471000,63.529500C296.586000,64.221300,296.702000,64.797700,296.702000,65.489500C296.817000,66.757800,296.817000,68.026100,296.702000,69.409700L296.702000,69.640300L296.471000,69.755600C296.240000,69.870900,296.009000,69.986200,295.893000,70.216800C295.777000,70.332100,295.546000,70.562700,295.431000,70.678000C295.315000,70.793300,295.315000,70.908600,295.315000,71.023900C295.315000,71.139200,295.200000,71.254500,295.200000,71.369800C295.200000,71.600400,295.200000,71.831000,295.200000,72.061500C295.315000,72.522700,295.546000,72.983900,295.893000,73.445100C296.586000,73.906300,296.933000,74.252200,297.279000,74.598100Z" fill="rgb(221,144,120)" stroke="none" stroke-width="1"/><path id="e18s6t2e90mb75" d="M315.417000,61.800000C315.417000,61.800000,315.533000,62.030600,315.649000,62.491700C315.764000,62.722300,315.764000,62.952900,315.880000,63.183500C315.995000,63.414100,316.111000,63.760000,316.342000,64.105900C316.457000,64.451800,316.804000,64.682400,316.919000,65.028300C317.035000,65.143600,317.150000,65.258900,317.381000,65.489500C317.497000,65.604800,317.613000,65.720100,317.844000,65.835400C318.190000,66.066000,318.537000,66.181300,318.883000,66.296600C319.114000,66.296600,319.230000,66.411900,319.461000,66.411900C319.692000,66.411900,319.808000,66.411900,320.039000,66.296600L320.616000,66.066000L321.194000,65.720100C321.541000,65.489500,321.772000,65.143600,322.003000,64.797700C322.234000,64.451800,322.349000,64.105900,322.580000,63.760000C322.696000,63.414100,322.811000,63.068200,322.811000,62.607000C322.811000,62.261100,322.811000,61.915200,322.927000,61.684700C322.927000,61.338800,322.927000,61.108200,322.927000,60.877600C322.927000,60.416400,322.927000,60.185800,322.927000,60.185800C322.927000,60.185800,323.042000,60.416400,323.158000,60.877600C323.274000,61.108200,323.274000,61.338800,323.389000,61.684700C323.389000,62.030500,323.505000,62.376400,323.505000,62.722300C323.505000,63.068200,323.505000,63.529400,323.389000,63.990600C323.274000,64.451800,323.158000,64.913000,322.927000,65.374200C322.696000,65.835400,322.349000,66.296600,321.887000,66.642500L321.194000,67.103700C320.963000,67.219000,320.616000,67.334300,320.385000,67.449600C320.154000,67.449600,319.808000,67.564900,319.461000,67.564900C319.230000,67.564900,318.883000,67.449600,318.652000,67.449600C318.075000,67.334300,317.613000,66.988400,317.150000,66.642500C316.688000,66.296600,316.457000,65.835400,316.226000,65.489500C315.995000,65.028300,315.764000,64.682400,315.649000,64.336500C315.533000,63.990600,315.417000,63.644700,315.417000,63.298800C315.417000,62.952900,315.417000,62.722300,315.417000,62.491700C315.417000,62.030600,315.417000,61.800000,315.417000,61.800000Z" fill="rgb(31,39,51)" stroke="none" stroke-width="1"/><path id="e18s6t2e90mb76" d="M336.329000,58.341000C336.329000,58.341000,336.444000,58.571600,336.560000,59.032800C336.675000,59.263400,336.675000,59.494000,336.791000,59.724600C336.906000,59.955200,337.022000,60.301100,337.253000,60.647000C337.368000,60.992900,337.715000,61.223500,337.831000,61.569400C337.946000,61.684700,338.062000,61.800000,338.293000,62.030600C338.408000,62.145900,338.524000,62.261200,338.755000,62.376500C339.101000,62.607100,339.448000,62.722400,339.795000,62.837700C340.026000,62.837700,340.141000,62.953000,340.372000,62.953000C340.603000,62.953000,340.719000,62.953000,340.950000,62.837700L341.527000,62.607100L342.105000,62.261200C342.452000,62.030600,342.683000,61.684700,342.914000,61.338800C343.145000,60.992900,343.260000,60.647000,343.491000,60.301100C343.607000,59.955200,343.723000,59.609300,343.723000,59.148100C343.723000,58.802200,343.723000,58.456300,343.838000,58.225700C343.838000,57.879800,343.838000,57.649200,343.838000,57.418600C343.838000,56.957400,343.838000,56.726900,343.838000,56.726900C343.838000,56.726900,343.954000,56.957400,344.069000,57.418600C344.185000,57.649200,344.185000,57.879800,344.300000,58.225700C344.300000,58.571600,344.416000,58.917500,344.416000,59.263400C344.416000,59.609300,344.416000,60.070500,344.300000,60.531700C344.185000,60.992900,344.069000,61.454100,343.838000,61.915300C343.607000,62.376500,343.260000,62.837700,342.798000,63.183600L342.105000,63.644800C341.874000,63.760100,341.527000,63.875400,341.296000,63.990600C341.065000,63.990600,340.719000,64.106000,340.372000,64.106000C340.141000,64.106000,339.795000,63.990600,339.563000,63.990600C338.986000,63.875400,338.524000,63.529500,338.062000,63.183600C337.599000,62.837700,337.368000,62.376500,337.137000,62.030600C336.906000,61.569400,336.675000,61.223500,336.560000,60.877600C336.444000,60.531700,336.329000,60.185800,336.329000,59.839900C336.329000,59.494000,336.329000,59.263400,336.329000,59.032800C336.329000,58.571600,336.329000,58.341000,336.329000,58.341000Z" fill="rgb(31,39,51)" stroke="none" stroke-width="1"/><path id="e18s6t2e90mb77" d="M317.237000,78.103400C317.237000,78.103400,317.121000,78.103400,317.237000,78.218700C317.352000,78.334000,317.583000,78.449300,317.815000,78.564600C318.277000,78.910500,319.085000,79.256400,320.010000,79.717600C320.934000,80.178800,322.089000,80.640000,323.244000,80.985800C323.822000,81.216400,324.515000,81.331700,325.093000,81.447000C325.671000,81.562300,326.364000,81.677600,327.057000,81.792900C328.328000,81.908200,329.599000,82.023500,330.869000,81.908200C332.140000,81.792900,333.180000,81.562300,334.220000,81.216400C335.144000,80.870500,335.953000,80.640000,336.530000,80.409400C337.108000,80.178800,337.455000,80.063500,337.455000,80.063500C337.455000,80.063500,337.224000,80.409400,336.761000,80.755200C336.299000,81.216400,335.606000,81.792900,334.682000,82.369400C333.758000,82.945900,332.487000,83.522400,331.100000,83.753000C329.714000,84.098900,328.212000,84.098900,326.710000,83.983600C326.017000,83.868300,325.208000,83.753000,324.515000,83.522400C323.822000,83.291800,323.129000,83.061200,322.551000,82.715300C321.280000,82.138800,320.241000,81.447000,319.432000,80.755200C318.623000,80.063500,317.930000,79.371700,317.583000,78.795200C317.352000,78.564600,317.237000,78.334000,317.237000,78.103400C317.121000,78.103400,317.121000,78.218700,317.237000,78.103400Z" fill="rgb(221,144,120)" stroke="none" stroke-width="1"/></g></g><path id="e18s6t2e90mb78" d="M335.289000,105.613000C335.289000,105.613000,364.865000,102.500000,368.677000,125.099000C372.490000,147.813000,372.143000,153.923000,372.143000,153.923000L343.261000,149.657000L335.289000,105.613000Z" fill="rgb(102,51,204)" stroke="none" stroke-width="1"/><path id="e18s6t2e90mb79" d="M360.242000,123.830000C358.509000,109.417000,343.837000,106.304000,335.288000,105.612000C331.475000,110.916000,326.161000,114.721000,318.883000,114.952000C310.564000,115.182000,302.939000,112.300000,298.896000,105.958000C285.957000,107.457000,273.133000,111.147000,270.244000,119.909000C264.121000,138.357000,269.436000,239.820000,269.436000,239.820000C269.436000,239.820000,321.193000,248.698000,363.708000,240.627000C363.593000,240.742000,362.553000,143.084000,360.242000,123.830000Z" fill="rgb(102,51,204)" stroke="none" stroke-width="1"/><path id="e18s6t2e90mb80" d="M267.242000,169.258000C267.473000,202.695000,269.437000,239.936000,269.437000,239.936000C269.437000,239.936000,321.194000,248.814000,363.709000,240.743000C363.709000,240.743000,362.900000,166.606000,361.167000,134.784000C329.859000,146.429000,298.550000,157.959000,267.242000,169.258000Z" opacity="0.2" fill="rgb(53,44,56)" stroke="none" stroke-width="1"/><path id="e18s6t2e90mb81" d="M299.127000,196.007000C299.127000,196.007000,297.972000,192.664000,303.286000,190.473000C308.601000,188.282000,363.362000,173.985000,366.828000,174.447000C370.293000,174.908000,412.693000,179.981000,413.386000,182.287000C414.079000,184.593000,362.668000,201.196000,362.668000,201.196000L299.127000,196.007000Z" fill="rgb(225,237,255)" stroke="none" stroke-width="1"/><path id="e18s6t2e90mb82" d="M365.557000,205.577000C365.557000,205.577000,305.597000,205.347000,300.976000,199.928000C296.355000,194.509000,296.239000,190.588000,322.465000,195.200000C348.690000,199.812000,363.824000,199.120000,363.824000,199.120000C363.824000,199.120000,411.885000,176.753000,413.502000,182.172000C415.004000,187.706000,420.087000,186.322000,365.557000,205.577000Z" fill="rgb(192,213,255)" stroke="none" stroke-width="1"/><path id="e18s6t2e90mb83" d="M413.387000,182.287000C411.885000,176.868000,363.709000,199.236000,363.709000,199.236000C363.709000,199.236000,363.593000,199.236000,363.247000,199.236000C364.286000,201.311000,365.095000,203.271000,366.019000,205.462000C420.087000,186.322000,415.004000,187.706000,413.387000,182.287000Z" fill="rgb(177,197,232)" stroke="none" stroke-width="1"/><path id="e18s6t2e90mb84" d="M297.394000,183.670000C297.394000,183.670000,296.238000,180.327000,301.553000,178.136000C306.867000,175.945000,361.628000,161.648000,365.094000,162.110000C368.560000,162.571000,410.959000,167.644000,411.653000,169.950000C412.346000,172.256000,360.935000,188.859000,360.935000,188.859000L297.394000,183.670000Z" fill="rgb(225,237,255)" stroke="none" stroke-width="1"/><path id="e18s6t2e90mb85" d="M363.824000,193.356000C363.824000,193.356000,303.864000,193.125000,299.243000,187.706000C294.622000,182.287000,294.506000,178.367000,320.731000,182.979000C346.957000,187.591000,362.091000,186.899000,362.091000,186.899000C362.091000,186.899000,410.151000,164.531000,411.769000,169.950000C413.155000,175.369000,418.354000,173.985000,363.824000,193.356000Z" fill="rgb(192,213,255)" stroke="none" stroke-width="1"/><path id="e18s6t2e90mb86" d="M411.654000,170.065000C410.152000,164.646000,361.976000,187.014000,361.976000,187.014000C361.976000,187.014000,361.860000,187.014000,361.514000,187.014000C362.553000,189.090000,363.362000,191.050000,364.286000,193.240000C418.239000,173.985000,413.155000,175.369000,411.654000,170.065000Z" fill="rgb(177,197,232)" stroke="none" stroke-width="1"/><path id="e18s6t2e90mb87" d="M297.163000,173.639000C297.163000,173.639000,296.123000,170.757000,301.206000,168.797000C306.290000,166.837000,359.318000,154.269000,362.668000,154.730000C366.019000,155.192000,407.032000,159.688000,407.725000,161.648000C408.418000,163.608000,358.625000,178.367000,358.625000,178.367000L297.163000,173.639000Z" fill="rgb(225,237,255)" stroke="none" stroke-width="1"/><path id="e18s6t2e90mb88" d="M361.398000,182.172000C361.398000,182.172000,303.402000,181.941000,298.897000,177.214000C294.391000,172.486000,294.391000,169.027000,319.692000,173.063000C344.993000,177.098000,359.665000,176.522000,359.665000,176.522000C359.665000,176.522000,406.224000,156.806000,407.726000,161.648000C409.228000,166.376000,414.195000,165.107000,361.398000,182.172000Z" fill="rgb(192,213,255)" stroke="none" stroke-width="1"/><path id="e18s6t2e90mb89" d="M407.726000,161.648000C406.224000,156.921000,359.665000,176.522000,359.665000,176.522000C359.665000,176.522000,359.550000,176.522000,359.203000,176.522000C360.127000,178.251000,361.052000,180.096000,361.860000,181.941000C414.195000,165.107000,409.228000,166.376000,407.726000,161.648000Z" fill="rgb(177,197,232)" stroke="none" stroke-width="1"/><path id="e18s6t2e90mb90" d="M298.780000,160.150000C298.780000,160.150000,297.856000,157.267000,303.055000,155.422000C308.254000,153.693000,361.629000,143.085000,364.979000,143.662000C368.329000,144.123000,409.111000,150.234000,409.689000,152.194000C410.267000,154.154000,360.011000,166.952000,360.011000,166.952000L298.780000,160.150000Z" fill="rgb(255,255,255)" stroke="none" stroke-width="1"/><path id="e18s6t2e90mb91" d="M362.669000,171.102000C362.669000,171.102000,304.673000,168.681000,300.399000,163.838000C296.124000,158.880000,296.124000,155.537000,321.309000,160.494000C346.495000,165.452000,361.167000,165.452000,361.167000,165.452000C361.167000,165.452000,408.419000,147.581000,409.690000,152.308000C411.076000,157.035000,416.044000,155.998000,362.669000,171.102000Z" fill="rgb(192,213,255)" stroke="none" stroke-width="1"/><path id="e18s6t2e90mb92" d="M409.690000,152.309000C408.419000,147.467000,361.167000,165.453000,361.167000,165.453000C361.167000,165.453000,361.052000,165.453000,360.705000,165.453000C361.629000,167.298000,362.438000,169.143000,363.131000,170.988000C415.928000,155.999000,410.961000,157.036000,409.690000,152.309000Z" fill="rgb(177,197,232)" stroke="none" stroke-width="1"/><path id="e18s6t2e90mb93" d="M268.628000,162.340000L297.164000,155.422000C297.164000,155.422000,303.287000,196.930000,304.904000,199.236000C306.522000,201.542000,354.236000,203.848000,354.236000,203.848000L368.099000,204.655000C368.099000,204.655000,309.525000,229.213000,292.658000,219.298000C275.560000,209.151000,268.628000,162.340000,268.628000,162.340000Z" fill="rgb(255,179,159)" stroke="none" stroke-width="1"/><path id="e18s6t2e90mb94" d="M271.401000,167.298000C280.181000,164.646000,288.730000,161.418000,297.741000,159.458000C297.395000,156.921000,297.164000,155.422000,297.164000,155.422000L268.628000,162.340000C268.628000,162.340000,268.975000,164.416000,269.552000,167.875000C270.245000,167.644000,270.823000,167.413000,271.401000,167.298000Z" fill="rgb(224,155,141)" stroke="none" stroke-width="1"/><path id="e18s6t2e90mb95" d="M362.785000,208.460000C362.785000,208.460000,384.504000,202.695000,384.504000,198.313000C384.504000,193.932000,376.648000,178.136000,382.194000,199.236000C382.194000,199.236000,370.641000,170.642000,379.883000,200.619000C379.883000,200.619000,370.872000,177.329000,376.995000,201.196000C376.995000,201.196000,367.752000,185.054000,374.453000,202.349000L366.135000,205.462000L346.148000,205.231000L335.520000,215.608000L362.785000,208.460000Z" fill="rgb(255,179,159)" stroke="none" stroke-width="1"/><path id="e18s6t2e90mb96" d="M413.618000,187.360000C413.618000,187.360000,402.065000,158.766000,411.307000,188.744000C411.307000,188.744000,402.296000,165.453000,408.419000,189.320000C408.419000,189.320000,399.176000,173.178000,405.068000,190.588000L398.714000,193.586000C401.025000,193.817000,404.029000,193.701000,406.455000,192.894000C413.849000,191.395000,415.928000,188.859000,415.928000,186.553000C415.928000,182.172000,408.072000,166.376000,413.618000,187.360000Z" fill="rgb(255,179,159)" stroke="none" stroke-width="1"/><path id="e18s6t2e90mb97" d="M443.078000,490.825000C443.078000,494.976000,439.728000,498.435000,435.569000,498.550000C431.409000,498.550000,427.944000,495.207000,427.828000,491.056000L427.481000,466.613000C427.481000,462.462000,430.832000,459.003000,434.991000,458.888000C439.150000,458.888000,442.616000,462.231000,442.731000,466.382000L443.078000,490.825000Z" fill="rgb(9,30,29)" stroke="none" stroke-width="1"/><path id="e18s6t2e90mb98" d="M336.675000,492.095000C336.675000,496.245000,333.325000,499.704000,329.166000,499.820000C325.007000,499.820000,321.541000,496.476000,321.425000,492.325000L321.079000,467.882000C321.079000,463.731000,324.429000,460.272000,328.588000,460.157000C332.747000,460.157000,336.213000,463.501000,336.329000,467.651000L336.675000,492.095000Z" fill="rgb(9,30,29)" stroke="none" stroke-width="1"/><path id="e18s6t2e90mb99" d="M434.529000,473.415000C434.645000,482.870000,427.020000,490.595000,417.546000,490.710000L346.380000,491.517000C336.907000,491.633000,329.166000,484.023000,329.051000,474.568000L321.426000,312.920000C321.310000,303.466000,328.935000,295.741000,338.408000,295.625000L421.012000,294.588000C430.486000,294.472000,438.226000,302.082000,438.342000,311.536000L434.529000,473.415000Z" fill="rgb(50,33,83)" stroke="none" stroke-width="1"/><path id="e18s6t2e90mb100" d="M437.879000,327.793000L438.226000,311.767000C438.111000,302.313000,430.370000,294.703000,420.897000,294.818000L338.293000,295.856000C328.819000,295.971000,321.194000,303.696000,321.310000,313.151000L322.119000,329.177000L437.879000,327.793000Z" fill="rgb(28,12,59)" stroke="none" stroke-width="1"/><path id="e18s6t2e90mb101" d="M451.974000,307.732000C451.974000,310.383000,449.895000,312.459000,447.237000,312.574000L312.299000,314.188000C309.641000,314.188000,307.562000,312.113000,307.446000,309.461000L307.215000,292.397000C307.215000,289.745000,309.295000,287.670000,311.952000,287.554000L446.891000,285.940000C449.548000,285.940000,451.628000,288.016000,451.743000,290.667000L451.974000,307.732000Z" fill="rgb(50,33,83)" stroke="none" stroke-width="1"/><path id="e18s6t2e90mb102" d="M380.346000,355.119000L396.058000,345.665000L392.245000,355.465000L380.346000,355.119000Z" fill="rgb(255,255,255)" stroke="none" stroke-width="1"/><path id="e18s6t2e90mb103" d="M374.454000,340.246000C374.454000,340.246000,375.724000,340.246000,377.688000,343.243000C379.652000,346.241000,384.043000,354.312000,384.043000,354.312000L392.014000,350.738000L393.863000,347.625000C393.863000,347.625000,390.397000,340.707000,387.624000,340.246000L374.454000,340.246000Z" fill="rgb(255,255,255)" stroke="none" stroke-width="1"/><path id="e18s6t2e90mb104" d="M370.064000,342.321000C370.064000,342.321000,372.490000,339.669000,374.454000,341.053000C376.418000,342.437000,379.884000,348.202000,379.884000,348.202000L374.223000,358.117000L364.056000,352.468000L370.064000,342.321000Z" fill="rgb(255,255,255)" stroke="none" stroke-width="1"/><path id="e18s6t2e90mb105" d="M387.509000,367.456000L388.317000,385.673000L381.501000,377.718000L387.509000,367.456000Z" fill="rgb(255,255,255)" stroke="none" stroke-width="1"/><path id="e18s6t2e90mb106" d="M403.451000,369.301000C403.451000,369.301000,402.874000,370.454000,399.292000,370.800000C395.711000,371.146000,386.469000,371.146000,386.469000,371.146000L385.775000,379.908000L387.624000,383.022000C387.624000,383.022000,395.364000,383.367000,397.097000,381.061000L403.451000,369.301000Z" fill="rgb(255,255,255)" stroke="none" stroke-width="1"/><path id="e18s6t2e90mb107" d="M403.567000,364.458000C403.567000,364.458000,404.838000,367.802000,402.643000,368.955000C400.563000,369.993000,393.747000,370.223000,393.747000,370.223000L387.624000,360.538000L397.444000,354.197000L403.567000,364.458000Z" fill="rgb(255,255,255)" stroke="none" stroke-width="1"/><path id="e18s6t2e90mb108" d="M373.760000,367.226000L357.585000,358.694000L367.868000,356.849000L373.760000,367.226000Z" fill="rgb(255,255,255)" stroke="none" stroke-width="1"/><path id="e18s6t2e90mb109" d="M364.056000,380.024000C364.056000,380.024000,363.363000,378.986000,364.865000,375.758000C366.367000,372.529000,370.988000,364.574000,370.988000,364.574000L363.825000,359.616000L360.244000,359.731000C360.244000,359.731000,356.085000,366.303000,357.124000,368.840000L364.056000,380.024000Z" fill="rgb(255,255,255)" stroke="none" stroke-width="1"/><path id="e18s6t2e90mb110" d="M368.215000,382.560000C368.215000,382.560000,364.634000,381.868000,364.865000,379.562000C364.980000,377.141000,368.215000,371.261000,368.215000,371.261000L379.653000,370.915000L380.115000,382.560000L368.215000,382.560000Z" fill="rgb(255,255,255)" stroke="none" stroke-width="1"/></svg>