<?xml version="1.0" encoding="UTF-8" standalone="no"?><!DOCTYPE svg PUBLIC "-//W3C//DTD SVG 1.1//EN" "http://www.w3.org/Graphics/SVG/1.1/DTD/svg11.dtd"><svg width="100%" height="100%" viewBox="0 0 1438 293" version="1.1" xmlns="http://www.w3.org/2000/svg" xmlns:xlink="http://www.w3.org/1999/xlink" xml:space="preserve" xmlns:serif="http://www.serif.com/" style="fill-rule:evenodd;clip-rule:evenodd;stroke-linejoin:round;stroke-miterlimit:2;"><rect id="Prancheta1" x="0" y="0" width="1437.25" height="292.935" style="fill:none;"/><text x="462.696px" y="215.803px" style="font-family:'AzonixRegular', 'Azonix';font-size:192px;fill:#322153;">E<tspan x="605.736px 748.968px 893.352px " y="215.803px 215.803px 215.803px ">col</tspan>et<tspan x="1292.52px " y="215.803px ">a</tspan></text><clipPath id="_clip1"><rect x="61.108" y="4.988" width="331.134" height="287.421"/></clipPath><g clip-path="url(#_clip1)"><clipPath id="_clip2"><rect x="61.108" y="4.988" width="1188.88" height="287.421"/></clipPath><g clip-path="url(#_clip2)"><path d="M531.434,225.989l0,-144.86l97.827,0l0,27.383l-65.218,0l0,28.429l57.902,0l0,26.756l-57.902,0l0,34.909l70.026,0l0,27.383l-102.635,0Z" style="fill:#322153;fill-rule:nonzero;"/><path d="M648.435,171.013c0,-7.943 1.254,-15.398 3.763,-22.366c2.648,-7.107 6.41,-13.239 11.288,-18.395c4.877,-5.296 10.8,-9.477 17.767,-12.542c6.968,-3.066 14.912,-4.599 23.831,-4.599c5.852,0 11.22,0.557 16.093,1.672c4.88,0.976 9.616,2.439 14.215,4.39l-6.48,24.875c-2.927,-1.115 -6.128,-2.09 -9.616,-2.927c-3.482,-0.836 -7.384,-1.254 -11.704,-1.254c-9.197,0 -16.095,2.857 -20.695,8.571c-4.459,5.713 -6.689,13.239 -6.689,22.575c0,9.895 2.091,17.559 6.272,22.994c4.32,5.435 11.775,8.152 22.366,8.152c3.763,0 7.805,-0.348 12.122,-1.045c4.325,-0.697 8.296,-1.811 11.915,-3.344l4.39,25.502c-3.619,1.533 -8.152,2.856 -13.587,3.971c-5.435,1.115 -11.426,1.673 -17.975,1.673c-10.034,0 -18.674,-1.464 -25.92,-4.39c-7.247,-3.066 -13.239,-7.177 -17.978,-12.333c-4.599,-5.156 -8.012,-11.218 -10.242,-18.186c-2.09,-7.107 -3.136,-14.771 -3.136,-22.994Z" style="fill:#322153;fill-rule:nonzero;"/><path d="M855.717,170.804c0,8.641 -1.255,16.584 -3.763,23.83c-2.508,7.107 -6.134,13.239 -10.87,18.395c-4.742,5.017 -10.451,8.919 -17.14,11.706c-6.552,2.787 -13.94,4.181 -22.158,4.181c-8.087,0 -15.468,-1.394 -22.158,-4.181c-6.551,-2.787 -12.195,-6.689 -16.931,-11.706c-4.743,-5.156 -8.433,-11.288 -11.079,-18.395c-2.652,-7.246 -3.972,-15.189 -3.972,-23.83c0,-8.64 1.32,-16.513 3.972,-23.621c2.783,-7.107 6.545,-13.169 11.288,-18.185c4.873,-5.017 10.589,-8.919 17.141,-11.706c6.689,-2.788 13.933,-4.181 21.739,-4.181c7.943,0 15.188,1.393 21.74,4.181c6.689,2.787 12.398,6.689 17.14,11.706c4.736,5.016 8.427,11.078 11.079,18.185c2.646,7.108 3.972,14.981 3.972,23.621Zm-31.773,0c0,-9.615 -1.954,-17.14 -5.853,-22.575c-3.763,-5.574 -9.198,-8.362 -16.305,-8.362c-7.107,0 -12.614,2.788 -16.514,8.362c-3.906,5.435 -5.853,12.96 -5.853,22.575c0,9.616 1.947,17.28 5.853,22.994c3.9,5.574 9.407,8.361 16.514,8.361c7.107,0 12.542,-2.787 16.305,-8.361c3.899,-5.714 5.853,-13.378 5.853,-22.994Z" style="fill:#322153;fill-rule:nonzero;"/><path d="M923.738,228.079c-9.054,-0.139 -16.442,-1.115 -22.158,-2.926c-5.572,-1.811 -10.034,-4.32 -13.378,-7.525c-3.201,-3.345 -5.435,-7.316 -6.689,-11.915c-1.111,-4.738 -1.673,-10.034 -1.673,-15.887l0,-121.03l31.146,-5.017l0,119.776c0,2.788 0.21,5.296 0.628,7.526c0.418,2.229 1.188,4.11 2.299,5.643c1.254,1.534 2.998,2.788 5.226,3.763c2.234,0.975 5.226,1.602 8.988,1.881l-4.389,25.711Z" style="fill:#322153;fill-rule:nonzero;"/><path d="M940.754,171.849c0,-9.754 1.463,-18.255 4.39,-25.502c3.07,-7.386 7.042,-13.517 11.915,-18.395c4.879,-4.877 10.452,-8.57 16.723,-11.078c6.414,-2.509 12.96,-3.763 19.649,-3.763c15.612,0 27.945,4.808 36.999,14.423c9.06,9.477 13.587,23.482 13.587,42.016c0,1.811 -0.066,3.833 -0.209,6.062c-0.137,2.09 -0.275,3.972 -0.418,5.644l-70.654,0c0.699,6.41 3.698,11.497 8.989,15.259c5.297,3.763 12.405,5.644 21.321,5.644c5.716,0 11.288,-0.488 16.723,-1.463c5.578,-1.115 10.105,-2.438 13.587,-3.972l4.181,25.294c-1.672,0.836 -3.9,1.672 -6.689,2.508c-2.783,0.836 -5.919,1.533 -9.407,2.09c-3.344,0.697 -6.963,1.254 -10.87,1.673c-3.899,0.418 -7.799,0.627 -11.705,0.627c-9.89,0 -18.533,-1.464 -25.921,-4.39c-7.244,-2.927 -13.306,-6.898 -18.186,-11.915c-4.735,-5.156 -8.289,-11.218 -10.66,-18.186c-2.228,-6.968 -3.345,-14.493 -3.345,-22.576Zm73.162,-11.914c-0.137,-2.648 -0.627,-5.226 -1.463,-7.735c-0.693,-2.508 -1.882,-4.738 -3.554,-6.689c-1.528,-1.951 -3.553,-3.553 -6.062,-4.808c-2.365,-1.254 -5.363,-1.881 -8.988,-1.881c-3.482,0 -6.48,0.627 -8.989,1.881c-2.508,1.115 -4.598,2.648 -6.271,4.599c-1.672,1.951 -2.992,4.251 -3.971,6.898c-0.836,2.509 -1.464,5.087 -1.882,7.735l41.18,0Z" style="fill:#322153;fill-rule:nonzero;"/><path d="M1067.01,88.654l31.146,-5.017l0,32.4l37.417,0l0,25.921l-37.417,0l0,38.671c0,6.55 1.11,11.776 3.344,15.677c2.365,3.902 7.035,5.853 14.005,5.853c3.345,0 6.755,-0.279 10.243,-0.836c3.619,-0.697 6.898,-1.602 9.825,-2.717l4.389,24.248c-3.762,1.533 -7.943,2.856 -12.542,3.971c-4.598,1.115 -10.242,1.673 -16.931,1.673c-8.506,0 -15.541,-1.116 -21.113,-3.345c-5.578,-2.369 -10.033,-5.574 -13.378,-9.616c-3.345,-4.18 -5.716,-9.197 -7.107,-15.05c-1.254,-5.853 -1.881,-12.333 -1.881,-19.44l0,-92.393Z" style="fill:#322153;fill-rule:nonzero;"/><path d="M1198.87,204.25c3.07,0 5.997,-0.07 8.786,-0.209c2.783,-0.14 5.01,-0.349 6.689,-0.627l0,-23.621c-1.254,-0.279 -3.142,-0.557 -5.65,-0.836c-2.509,-0.279 -4.808,-0.418 -6.899,-0.418c-2.926,0 -5.709,0.209 -8.361,0.627c-2.508,0.279 -4.736,0.906 -6.689,1.881c-1.947,0.975 -3.482,2.299 -4.592,3.972c-1.117,1.672 -1.679,3.762 -1.679,6.271c0,4.877 1.607,8.291 4.808,10.242c3.344,1.812 7.878,2.718 13.587,2.718Zm-2.508,-91.139c9.197,0 16.866,1.045 23,3.135c6.127,2.091 11.007,5.087 14.626,8.989c3.762,3.902 6.414,8.64 7.949,14.214c1.529,5.574 2.293,11.776 2.293,18.604l0,64.801c-4.455,0.975 -10.654,2.09 -18.597,3.344c-7.95,1.394 -17.565,2.091 -28.853,2.091c-7.101,0 -13.581,-0.628 -19.434,-1.882c-5.716,-1.254 -10.667,-3.274 -14.848,-6.062c-4.181,-2.926 -7.381,-6.689 -9.615,-11.288c-2.228,-4.598 -3.345,-10.242 -3.345,-16.931c0,-6.41 1.254,-11.845 3.769,-16.305c2.646,-4.46 6.128,-8.013 10.452,-10.661c4.318,-2.647 9.263,-4.528 14.841,-5.644c5.572,-1.254 11.353,-1.881 17.35,-1.881c4.037,0 7.591,0.209 10.654,0.627c3.208,0.279 5.788,0.697 7.741,1.254l0,-2.926c0,-5.296 -1.607,-9.546 -4.808,-12.751c-3.207,-3.205 -8.779,-4.808 -16.729,-4.808c-5.291,0 -10.517,0.418 -15.677,1.254c-5.154,0.697 -9.616,1.743 -13.372,3.136l-3.978,-25.084c1.816,-0.557 4.043,-1.115 6.695,-1.672c2.783,-0.697 5.781,-1.255 8.982,-1.673c3.208,-0.557 6.552,-0.975 10.04,-1.254c3.619,-0.418 7.245,-0.627 10.864,-0.627Z" style="fill:#322153;fill-rule:nonzero;"/><path d="M156.754,17.071l-29.885,57.069c-1.929,3.684 -0.659,8.291 2.858,10.363l46.794,27.564c3.566,2.1 8.099,0.809 10.127,-2.886l57.198,-104.188l-67.508,0c-8.171,0 -15.687,4.634 -19.584,12.078Z" style="fill:#29a361;fill-rule:nonzero;"/><path d="M243.843,4.988l-57.196,104.191c-2.032,3.693 -6.562,4.988 -10.126,2.889l-12.214,-7.192c2.978,0.497 6.076,-0.921 7.653,-3.798l52.761,-96.09l19.122,0Z" style="fill:#248f55;fill-rule:nonzero;"/><path d="M306.428,60.246l-20.612,-42.526c-3.782,-7.803 -11.487,-12.727 -19.912,-12.727l-59.596,0l45.757,80.451c-0.149,0.07 -0.3,0.14 -0.45,0.21c-2.878,1.342 -2.761,5.621 0.186,6.794l39.512,15.725c1.831,0.729 3.885,-0.219 4.588,-2.116l15.231,-41.105c1.127,-3.041 -1.831,-5.975 -4.704,-4.706Z" style="fill:#34cb79;fill-rule:nonzero;"/><path d="M311.132,64.948l-15.236,41.105c-0.699,1.902 -2.757,2.851 -4.586,2.118l-11.955,-4.76l14.252,-38.463c0.81,-2.181 -0.484,-4.305 -2.341,-4.862c-1.768,-0.532 -3.278,-1.732 -4.104,-3.436l-18.872,-38.932c-3.78,-7.8 -11.483,-12.73 -19.911,-12.73l17.526,0c8.422,0 16.125,4.93 19.91,12.73l20.611,42.53c2.877,-1.269 5.83,1.66 4.706,4.7Z" style="fill:#2fb86e;fill-rule:nonzero;"/><path d="M266.61,224.208c-0.555,-2.362 -3.495,-3.373 -5.288,-1.514l-30.882,32.003c-1.232,1.277 -1.232,3.347 0,4.623l31.001,32.127c1.782,1.846 4.691,0.861 5.276,-1.46l45.589,0c8.394,0 16.075,-4.888 19.872,-12.645l26.013,-53.135l-91.581,0l0,0.001Z" style="fill:#29a361;fill-rule:nonzero;"/><path d="M305.095,224.208l14.782,23.18c3.342,5.241 3.711,11.937 0.968,17.539l-6.079,12.416c-3.792,7.754 -11.476,12.645 -19.867,12.645l17.407,0c8.39,0 16.074,-4.891 19.873,-12.645l26.011,-53.134l-53.095,0l0,-0.001Z" style="fill:#248f55;fill-rule:nonzero;"/><path d="M204.397,283.878l0,-56.559c0,-4.25 -3.326,-7.698 -7.428,-7.698l-122.353,0l31.487,59.908c3.903,7.425 11.409,12.046 19.568,12.046l71.298,0c4.101,0 7.428,-3.445 7.428,-7.697Z" style="fill:#29a361;fill-rule:nonzero;"/><path d="M126.506,219.627l-27.172,47.028l-24.718,-47.028l51.89,0Z" style="fill:#248f55;fill-rule:nonzero;"/><path d="M204.394,227.32l0,56.561c0,4.25 -3.325,7.695 -7.425,7.695l-19.489,0c4.101,0 7.426,-3.445 7.426,-7.695l0,-56.561c0,-4.249 -3.325,-7.695 -7.426,-7.695l19.489,0c4.1,0 7.425,3.446 7.425,7.695Z" style="fill:#248f55;fill-rule:nonzero;"/><path d="M144.621,169.645l-5.494,-42.851c-0.272,-2.117 -2.148,-3.604 -4.19,-3.323l-41.508,5.715c-3.126,0.431 -4.291,4.371 -2.15,6.563l-26.196,39.129c-4.803,7.175 -5.291,16.542 -1.26,24.21l28.506,54.237l46.287,-80.125c0.017,0.012 0.032,0.025 0.049,0.038c2.642,2.078 6.393,-0.185 5.956,-3.593Z" style="fill:#34cb79;fill-rule:nonzero;"/><path d="M138.663,173.238c-0.013,-0.014 -0.032,-0.026 -0.045,-0.039l-46.288,80.123l-9.52,-18.111l37.675,-65.226l1.045,-1.809c0.571,-0.989 1.688,-1.417 2.779,-1.197c0.006,0.001 0.012,0.002 0.017,0.003c2.323,0.429 4.705,-1.576 4.349,-4.329l-4.827,-37.658l11.085,-1.524c2.044,-0.281 3.924,1.21 4.195,3.321l5.495,42.857c0.437,3.406 -3.317,5.668 -5.96,3.589Z" style="fill:#2fb86e;fill-rule:nonzero;"/><path d="M370.712,171.934l-35.833,-53.808c-2.198,-3.301 -6.474,-4.3 -9.826,-2.295l-46.698,27.926c-3.706,2.217 -4.843,7.212 -2.484,10.912l65.831,103.218l30.543,-62.389c3.697,-7.551 3.109,-16.594 -1.533,-23.564Z" style="fill:#34cb79;fill-rule:nonzero;"/><path d="M372.245,195.5l-30.548,62.385l-10.245,-16.071l22.674,-46.315c3.697,-7.551 3.11,-16.593 -1.533,-23.563l-34.566,-51.899l7.028,-4.204c3.35,-2.007 7.627,-1.007 9.823,2.295l35.834,53.808c4.643,6.97 5.229,16.012 1.533,23.564Z" style="fill:#2fb86e;fill-rule:nonzero;"/></g></g></svg>